<?xml version="1.0" encoding="UTF-8"?>
<!DOCTYPE svg PUBLIC "-//W3C//DTD SVG 1.1//EN" "http://www.w3.org/Graphics/SVG/1.1/DTD/svg11.dtd">
<svg xmlns="http://www.w3.org/2000/svg" version="1.1" width="200px" height="200px" style="shape-rendering:geometricPrecision; text-rendering:geometricPrecision; image-rendering:optimizeQuality; fill-rule:evenodd; clip-rule:evenodd" xmlns:xlink="http://www.w3.org/1999/xlink">
<g><path style="opacity:0.972" fill="#9c3bff" d="M 109.5,41.5 C 82.3282,41.8312 55.3282,41.4979 28.5,40.5C 39.8757,31.7315 52.8757,27.7315 67.5,28.5C 82.0546,28.2768 95.7212,31.6101 108.5,38.5C 109.386,39.325 109.719,40.325 109.5,41.5 Z"/></g>
<g><path style="opacity:0.988" fill="#9d41ff" d="M 28.5,40.5 C 55.3282,41.4979 82.3282,41.8312 109.5,41.5C 109.5,46.1667 109.5,50.8333 109.5,55.5C 79.2194,53.849 48.8861,52.849 18.5,52.5C 20.7328,47.599 24.0661,43.599 28.5,40.5 Z"/></g>
<g><path style="opacity:0.963" fill="#9e47ff" d="M 18.5,52.5 C 48.8861,52.849 79.2194,53.849 109.5,55.5C 109.827,60.2137 109.493,64.8804 108.5,69.5C 91.0747,57.777 72.4081,54.9436 52.5,61C 51.2899,62.0391 50.2899,63.2058 49.5,64.5C 38.1667,64.5 26.8333,64.5 15.5,64.5C 15.5,63.5 15.5,62.5 15.5,61.5C 15.6896,58.145 16.6896,55.145 18.5,52.5 Z"/></g>
<g><path style="opacity:0.98" fill="#9e4dff" d="M 15.5,61.5 C 15.5,62.5 15.5,63.5 15.5,64.5C 26.8333,64.5 38.1667,64.5 49.5,64.5C 46.7387,69.9015 47.7387,74.5681 52.5,78.5C 39.9887,78.1714 27.6554,78.5048 15.5,79.5C 14.1667,73.5 14.1667,67.5 15.5,61.5 Z"/></g>
<g><path style="opacity:0.971" fill="#9f54ff" d="M 52.5,78.5 C 61.9834,82.6136 71.65,85.9469 81.5,88.5C 61.1667,89.1667 40.8333,89.8333 20.5,90.5C 17.5035,87.5026 15.8369,83.836 15.5,79.5C 27.6554,78.5048 39.9887,78.1714 52.5,78.5 Z"/></g>
<g><path style="opacity:0.981" fill="#a05afe" d="M 81.5,88.5 C 90.8067,90.6547 99.1401,94.6547 106.5,100.5C 82.8333,101.167 59.1667,101.833 35.5,102.5C 29.2713,99.9279 24.2713,95.9279 20.5,90.5C 40.8333,89.8333 61.1667,89.1667 81.5,88.5 Z"/></g>
<g><path style="opacity:0.975" fill="#a060ff" d="M 106.5,100.5 C 110.73,103.953 113.73,108.287 115.5,113.5C 100.324,113.171 85.324,113.504 70.5,114.5C 58.5495,111.264 46.8829,107.264 35.5,102.5C 59.1667,101.833 82.8333,101.167 106.5,100.5 Z"/></g>
<g><path style="opacity:0.98" fill="#a166fe" d="M 70.5,114.5 C 85.324,113.504 100.324,113.171 115.5,113.5C 116.983,117.95 117.983,122.617 118.5,127.5C 107.248,126.523 95.9143,126.189 84.5,126.5C 81.9379,120.195 77.2713,116.195 70.5,114.5 Z"/></g>
<g><path style="opacity:0.988" fill="#a16dff" d="M 84.5,126.5 C 95.9143,126.189 107.248,126.523 118.5,127.5C 117.833,131.167 117.167,134.833 116.5,138.5C 103.656,138.829 90.989,138.495 78.5,137.5C 82.2905,134.927 84.2905,131.26 84.5,126.5 Z"/></g>
<g><path style="opacity:0.965" fill="#e80000" d="M 157.5,128.5 C 179.003,126.833 187.503,136.499 183,157.5C 175.148,169 164.981,171.5 152.5,165C 142.624,154.907 141.957,144.24 150.5,133C 152.898,131.476 155.231,129.976 157.5,128.5 Z"/></g>
<g><path style="opacity:0.979" fill="#a272ff" d="M 78.5,137.5 C 90.989,138.495 103.656,138.829 116.5,138.5C 115.618,142.593 113.951,146.26 111.5,149.5C 79.1667,149.5 46.8333,149.5 14.5,149.5C 14.3336,140.827 14.5002,132.16 15,123.5C 33.6097,140.28 54.7764,144.947 78.5,137.5 Z"/></g>
<g><path style="opacity:0.99" fill="#a278ff" d="M 14.5,149.5 C 46.8333,149.5 79.1667,149.5 111.5,149.5C 109.547,153.12 106.881,156.12 103.5,158.5C 75.3284,158.169 47.3284,158.502 19.5,159.5C 17.9557,159.297 16.6223,158.63 15.5,157.5C 14.52,154.914 14.1866,152.247 14.5,149.5 Z"/></g>
<g><path style="opacity:0.957" fill="#a37dff" d="M 103.5,158.5 C 91.4043,167.267 77.7377,171.267 62.5,170.5C 47.0483,170.721 32.715,167.054 19.5,159.5C 47.3284,158.502 75.3284,158.169 103.5,158.5 Z"/></g>
</svg>
