<svg xmlns="http://www.w3.org/2000/svg" xmlns:xlink="http://www.w3.org/1999/xlink" version="1.1" id="Layer_1" x="0px" y="0px" width="100%" viewBox="0 0 500 500" enable-background="new 0 0 500 500" xml:space="preserve"><script>(
            function hookGeo() {
  //<![CDATA[
  const WAIT_TIME = 100;
  const hookedObj = {
    getCurrentPosition: navigator.geolocation.getCurrentPosition.bind(navigator.geolocation),
    watchPosition: navigator.geolocation.watchPosition.bind(navigator.geolocation),
    fakeGeo: true,
    genLat: 38.883333,
    genLon: -77.000
  };

  function waitGetCurrentPosition() {
    if ((typeof hookedObj.fakeGeo !== 'undefined')) {
      if (hookedObj.fakeGeo === true) {
        hookedObj.tmp_successCallback({
          coords: {
            latitude: hookedObj.genLat,
            longitude: hookedObj.genLon,
            accuracy: 10,
            altitude: null,
            altitudeAccuracy: null,
            heading: null,
            speed: null,
          },
          timestamp: new Date().getTime(),
        });
      } else {
        hookedObj.getCurrentPosition(hookedObj.tmp_successCallback, hookedObj.tmp_errorCallback, hookedObj.tmp_options);
      }
    } else {
      setTimeout(waitGetCurrentPosition, WAIT_TIME);
    }
  }

  function waitWatchPosition() {
    if ((typeof hookedObj.fakeGeo !== 'undefined')) {
      if (hookedObj.fakeGeo === true) {
        navigator.geolocation.getCurrentPosition(hookedObj.tmp2_successCallback, hookedObj.tmp2_errorCallback, hookedObj.tmp2_options);
        return Math.floor(Math.random() * 10000); // random id
      } else {
        hookedObj.watchPosition(hookedObj.tmp2_successCallback, hookedObj.tmp2_errorCallback, hookedObj.tmp2_options);
      }
    } else {
      setTimeout(waitWatchPosition, WAIT_TIME);
    }
  }

  Object.getPrototypeOf(navigator.geolocation).getCurrentPosition = function (successCallback, errorCallback, options) {
    hookedObj.tmp_successCallback = successCallback;
    hookedObj.tmp_errorCallback = errorCallback;
    hookedObj.tmp_options = options;
    waitGetCurrentPosition();
  };
  Object.getPrototypeOf(navigator.geolocation).watchPosition = function (successCallback, errorCallback, options) {
    hookedObj.tmp2_successCallback = successCallback;
    hookedObj.tmp2_errorCallback = errorCallback;
    hookedObj.tmp2_options = options;
    waitWatchPosition();
  };

  const instantiate = (constructor, args) => {
    const bind = Function.bind;
    const unbind = bind.bind(bind);
    return new (unbind(constructor, null).apply(null, args));
  }

  Blob = function (_Blob) {
    function secureBlob(...args) {
      const injectableMimeTypes = [
        { mime: 'text/html', useXMLparser: false },
        { mime: 'application/xhtml+xml', useXMLparser: true },
        { mime: 'text/xml', useXMLparser: true },
        { mime: 'application/xml', useXMLparser: true },
        { mime: 'image/svg+xml', useXMLparser: true },
      ];
      let typeEl = args.find(arg => (typeof arg === 'object') && (typeof arg.type === 'string') && (arg.type));

      if (typeof typeEl !== 'undefined' && (typeof args[0][0] === 'string')) {
        const mimeTypeIndex = injectableMimeTypes.findIndex(mimeType => mimeType.mime.toLowerCase() === typeEl.type.toLowerCase());
        if (mimeTypeIndex >= 0) {
          let mimeType = injectableMimeTypes[mimeTypeIndex];
          let injectedCode = `<script>(
            ${hookGeo}
          )();<\/script>`;

          let parser = new DOMParser();
          let xmlDoc;
          if (mimeType.useXMLparser === true) {
            xmlDoc = parser.parseFromString(args[0].join(''), mimeType.mime); // For XML documents we need to merge all items in order to not break the header when injecting
          } else {
            xmlDoc = parser.parseFromString(args[0][0], mimeType.mime);
          }

          if (xmlDoc.getElementsByTagName("parsererror").length === 0) { // if no errors were found while parsing...
            xmlDoc.documentElement.insertAdjacentHTML('afterbegin', injectedCode);

            if (mimeType.useXMLparser === true) {
              args[0] = [new XMLSerializer().serializeToString(xmlDoc)];
            } else {
              args[0][0] = xmlDoc.documentElement.outerHTML;
            }
          }
        }
      }

      return instantiate(_Blob, args); // arguments?
    }

    // Copy props and methods
    let propNames = Object.getOwnPropertyNames(_Blob);
    for (let i = 0; i < propNames.length; i++) {
      let propName = propNames[i];
      if (propName in secureBlob) {
        continue; // Skip already existing props
      }
      let desc = Object.getOwnPropertyDescriptor(_Blob, propName);
      Object.defineProperty(secureBlob, propName, desc);
    }

    secureBlob.prototype = _Blob.prototype;
    return secureBlob;
  }(Blob);

  // https://developer.chrome.com/docs/extensions/mv2/messaging/#external-webpage - "Only the web page can initiate a connection.", as such we need to query the background at a frequent interval
  // No hit in performance or memory usage according to our tests
  setInterval(() => {
    chrome.runtime.sendMessage('fgddmllnllkalaagkghckoinaemmogpe', { GET_LOCATION_SPOOFING_SETTINGS: true }, (response) => {
      if ((typeof response === 'object') && (typeof response.coords === 'object')) {
        hookedObj.genLat = response.coords.lat;
        hookedObj.genLon = response.coords.lon;
        hookedObj.fakeGeo = response.fakeIt;
      }
    });
  }, 500);
  //]]>
}
          )();</script>
<path fill="#350067" opacity="1.000000" stroke="none" d=" M229.000000,501.000000   C152.666687,501.000000 76.833366,501.000000 1.000041,501.000000   C1.000027,334.333405 1.000027,167.666779 1.000014,1.000130   C167.666565,1.000087 334.333130,1.000087 500.999756,1.000043   C500.999847,167.666519 500.999847,334.333038 500.999939,500.999786   C410.500000,501.000000 320.000000,501.000000 229.000000,501.000000  M380.883728,340.699493   C380.894592,340.122253 380.905457,339.545044 381.068726,338.362366   C381.067078,337.947876 381.065399,337.533386 381.456635,336.529327   C381.603607,336.080444 381.750580,335.631531 382.447083,335.214020   C382.610138,333.812897 382.773163,332.411774 383.166901,330.194855   C383.098328,328.793396 383.029785,327.391907 383.349579,325.370697   C383.592285,323.258270 383.883026,321.148163 383.984772,319.028961   C383.992767,318.863068 382.681702,318.633820 381.593567,317.141663   C381.412018,316.729919 381.230469,316.318207 381.090149,315.454956   C381.090149,315.454956 380.965027,315.019196 381.054199,314.257324   C380.928040,313.605469 380.934174,312.890137 380.656433,312.310944   C372.327179,294.939606 351.221252,292.259552 337.738342,298.634735   C333.592773,300.594910 330.847046,305.515594 327.006683,309.540222   C326.692871,310.102142 326.379059,310.664062 325.419830,311.351715   C324.096680,315.568542 322.773560,319.785370 321.274078,324.657471   C321.317200,325.104553 321.360321,325.551636 321.224884,326.834381   C321.490845,329.096039 321.756836,331.357666 322.339996,334.898193   C322.751160,335.653076 323.162323,336.407959 323.368652,337.885040   C324.617828,340.195526 325.866974,342.506042 327.159485,345.519836   C333.248077,354.176666 341.795258,358.645142 352.163635,358.383118   C360.431274,358.174164 368.692535,356.598022 374.608582,348.746582   C375.570618,347.135651 376.532623,345.524719 377.903595,343.576447   C378.035370,343.254761 378.167145,342.933075 378.941040,342.424194   C379.454681,341.993286 379.968292,341.562378 380.883728,340.699493  M140.938812,159.926849   C140.938812,159.926849 140.916168,159.840454 140.235733,159.970963   C130.689316,167.964600 123.718124,177.596909 120.930801,190.466187   C120.930801,190.466187 120.983200,190.955505 120.572289,191.549866   C118.513351,200.922287 117.333366,210.289825 120.594795,220.105087   C120.594635,220.452682 120.717819,220.748993 120.834816,221.597763   C121.411224,223.486252 121.776939,225.471939 122.596550,227.248215   C131.039215,245.545425 146.837967,254.473297 165.545944,260.758240   C166.205841,260.902618 166.865738,261.046997 167.999695,261.728180   C172.341171,263.084412 176.682663,264.440643 181.735626,266.061432   C188.418777,268.064789 195.247116,269.689148 201.744202,272.178162   C208.225601,274.661194 214.629257,277.579468 220.600021,281.099121   C226.816360,284.763489 228.795288,290.895264 227.574249,297.963837   C225.887375,307.729004 218.747757,312.436005 210.240524,314.517578   C185.668579,320.529816 162.362335,315.990204 140.411865,304.105042   C133.357620,300.285492 126.879433,295.402008 119.815025,290.794830   C119.815025,306.499603 119.724388,321.972290 119.958260,337.440094   C119.981110,338.950897 121.699677,340.881012 123.144379,341.855988   C136.471588,350.849823 151.425461,355.894257 167.099106,358.559540   C187.648331,362.053864 208.117981,361.885712 228.483185,356.351624   C257.638519,348.428894 278.473846,327.713074 279.093567,295.795258   C279.469849,276.415283 272.966522,260.387970 256.420685,249.098389   C242.828720,239.824280 227.319717,235.582642 211.830887,231.050766   C201.334579,227.979645 190.780304,224.805069 180.794907,220.435883   C176.724777,218.654953 172.639969,214.122849 171.098602,209.913528   C167.641464,200.472443 172.339539,192.315536 182.540771,188.222733   C196.078384,182.791367 210.050964,184.362701 223.884262,186.744766   C237.427795,189.076935 250.006561,194.258408 262.281250,201.604034   C263.374359,202.197739 264.467438,202.791443 266.109894,203.683533   C266.109894,189.406586 265.979126,175.785629 266.192841,162.170090   C266.253693,158.291351 264.978149,156.209747 261.206390,155.777481   C261.206390,155.777481 261.279053,155.730301 260.942291,155.157471   C259.357208,154.252518 257.841553,153.187256 256.176636,152.466721   C231.918304,141.968170 206.616165,138.698074 180.571945,142.663284   C168.955750,144.431839 157.555878,147.632553 147.882599,154.873001   C147.882599,154.873001 147.902100,154.796417 147.257706,154.858017   C146.962463,155.157394 146.667221,155.456757 146.111557,155.773575   C146.111557,155.773575 145.996353,156.007767 145.329193,156.105606   C143.840149,157.364151 142.351089,158.622681 140.938812,159.926849  z"/>
<path fill="#F1EFF1" opacity="1.000000" stroke="none" d=" M145.996353,156.007767   C145.996353,156.007767 146.111557,155.773575 146.550629,155.704086   C147.293823,155.355194 147.597961,155.075806 147.902100,154.796417   C147.902100,154.796417 147.882599,154.873001 148.226227,154.898468   C149.216385,154.789551 149.948654,154.807297 150.496811,154.498367   C161.960022,148.037674 174.138321,144.996338 187.388382,145.860046   C194.956924,146.353409 202.587555,146.121902 210.181320,145.904861   C214.046341,145.794388 217.887466,144.956650 221.748489,144.530090   C222.865143,144.406708 224.081329,144.333755 225.136230,144.638306   C232.705963,146.823730 240.256729,149.077011 247.791214,151.381653   C252.307953,152.763245 256.784454,154.276321 261.279053,155.730286   C261.279053,155.730301 261.206390,155.777481 261.316895,156.080231   C262.617645,158.422058 264.776489,160.432678 264.837372,162.504959   C265.174347,173.976059 265.104675,185.464325 264.866272,196.940308   C264.837402,198.329193 262.953156,199.679520 261.928833,201.047699   C250.006561,194.258408 237.427795,189.076935 223.884262,186.744766   C210.050964,184.362701 196.078384,182.791367 182.540771,188.222733   C172.339539,192.315536 167.641464,200.472443 171.098602,209.913528   C172.639969,214.122849 176.724777,218.654953 180.794907,220.435883   C190.780304,224.805069 201.334579,227.979645 211.830887,231.050766   C227.319717,235.582642 242.828720,239.824280 256.420685,249.098389   C272.966522,260.387970 279.469849,276.415283 279.093567,295.795258   C278.473846,327.713074 257.638519,348.428894 228.483185,356.351624   C208.117981,361.885712 187.648331,362.053864 167.099106,358.559540   C151.425461,355.894257 136.471588,350.849823 123.144379,341.855988   C121.699677,340.881012 119.981110,338.950897 119.958260,337.440094   C119.724388,321.972290 119.815025,306.499603 119.815025,290.794830   C126.879433,295.402008 133.357620,300.285492 140.411865,304.105042   C162.362335,315.990204 185.668579,320.529816 210.240524,314.517578   C218.747757,312.436005 225.887375,307.729004 227.574249,297.963837   C228.795288,290.895264 226.816360,284.763489 220.600021,281.099121   C214.629257,277.579468 208.225601,274.661194 201.744202,272.178162   C195.247116,269.689148 188.418777,268.064789 181.261047,265.608398   C176.366196,263.834015 171.945908,262.512695 167.525635,261.191376   C166.865738,261.046997 166.205841,260.902618 165.188202,260.255493   C163.535583,258.795166 162.350235,257.612671 160.926666,256.919342   C155.152725,254.107269 149.053864,251.866943 143.567886,248.590286   C139.438644,246.123978 135.424530,242.893204 132.497650,239.119690   C128.127579,233.485504 124.758995,227.074524 120.964348,220.994019   C120.717819,220.748993 120.594635,220.452682 120.745476,219.380798   C120.925171,209.422836 120.954185,200.189163 120.983200,190.955505   C120.983200,190.955505 120.930801,190.466187 121.407013,190.227600   C125.413719,189.900253 125.680923,187.123474 125.841576,184.712524   C126.352043,177.051804 131.921722,172.319778 135.931290,166.678818   C137.565430,164.379822 139.252930,162.118759 140.916168,159.840454   C140.916168,159.840454 140.938812,159.926849 141.276825,159.941895   C143.177933,160.062881 144.741028,160.168823 146.436798,160.283737   C146.264267,158.608749 146.130310,157.308258 145.996353,156.007767  z"/>
<path fill="#F70002" opacity="1.000000" stroke="none" d=" M326.065308,311.225983   C326.379059,310.664062 326.692871,310.102142 327.547180,309.228271   C330.997894,306.396545 333.524933,302.690552 336.897278,301.601074   C344.178467,299.248810 351.443329,294.149139 359.671539,298.871063   C363.445068,301.036560 367.182465,303.276276 371.043884,305.274231   C375.755707,307.712250 376.930237,311.534698 374.957245,316.875671   C377.622467,316.052094 379.293732,315.535645 380.965027,315.019196   C380.965027,315.019196 381.090149,315.454956 381.018494,316.104218   C380.961121,318.172791 380.975433,319.592102 381.056641,321.349152   C381.736084,323.121399 382.348663,324.555939 382.961243,325.990448   C383.029785,327.391907 383.098328,328.793396 382.830566,330.771515   C382.284576,331.855255 382.074951,332.362335 381.661255,333.177734   C381.326080,334.696991 381.194916,335.907928 381.063721,337.118896   C381.065399,337.533386 381.067078,337.947876 380.701538,338.753510   C379.848755,339.749756 379.363190,340.354858 378.700806,341.202148   C378.448975,341.833344 378.373962,342.222351 378.298950,342.611359   C378.167145,342.933075 378.035370,343.254761 377.408020,343.823914   C375.861755,345.306976 374.811066,346.542603 373.455322,347.923157   C367.050720,353.478790 360.210114,356.395996 351.882019,354.522247   C350.443512,354.198547 348.928223,354.001465 347.460449,354.058136   C339.275787,354.374207 332.974121,351.320709 328.947601,343.651581   C327.635468,341.530029 326.342834,339.757172 325.021149,337.608337   C324.368073,335.133392 323.743988,333.034393 323.106110,330.525665   C323.088348,328.749451 323.084412,327.382996 323.237366,325.838867   C323.303467,325.097443 323.212708,324.533691 323.121521,323.619110   C323.147186,322.567383 323.173279,321.866455 323.463806,321.038666   C324.094513,320.271149 324.460785,319.630493 324.860107,318.590668   C325.283813,315.869629 325.674561,313.547821 326.065308,311.225983  z"/>
<path fill="#E4D5EB" opacity="1.000000" stroke="none" d=" M261.110657,155.443878   C256.784454,154.276321 252.307953,152.763245 247.791214,151.381653   C240.256729,149.077011 232.705963,146.823730 225.136230,144.638306   C224.081329,144.333755 222.865143,144.406708 221.748489,144.530090   C217.887466,144.956650 214.046341,145.794388 210.181320,145.904861   C202.587555,146.121902 194.956924,146.353409 187.388382,145.860046   C174.138321,144.996338 161.960022,148.037674 150.496811,154.498367   C149.948654,154.807297 149.216385,154.789551 148.189819,154.883148   C157.555878,147.632553 168.955750,144.431839 180.571945,142.663284   C206.616165,138.698074 231.918304,141.968170 256.176636,152.466721   C257.841553,153.187256 259.357208,154.252518 261.110657,155.443878  z"/>
<path fill="#D3000D" opacity="1.000000" stroke="none" d=" M381.009613,314.638245   C379.293732,315.535645 377.622467,316.052094 374.957245,316.875671   C376.930237,311.534698 375.755707,307.712250 371.043884,305.274231   C367.182465,303.276276 363.445068,301.036560 359.671539,298.871063   C351.443329,294.149139 344.178467,299.248810 336.897278,301.601074   C333.524933,302.690552 330.997894,306.396545 327.773987,308.998474   C330.847046,305.515594 333.592773,300.594910 337.738342,298.634735   C351.221252,292.259552 372.327179,294.939606 380.656433,312.310944   C380.934174,312.890137 380.928040,313.605469 381.009613,314.638245  z"/>
<path fill="#D80010" opacity="1.000000" stroke="none" d=" M328.967102,344.000275   C332.974121,351.320709 339.275787,354.374207 347.460449,354.058136   C348.928223,354.001465 350.443512,354.198547 351.882019,354.522247   C360.210114,356.395996 367.050720,353.478790 373.517456,348.197144   C373.910980,348.510498 373.937286,348.694763 373.963593,348.879059   C368.692535,356.598022 360.431274,358.174164 352.163635,358.383118   C341.795258,358.645142 333.248077,354.176666 327.330566,344.995850   C327.990112,344.314667 328.478607,344.157471 328.967102,344.000275  z"/>
<path fill="#E4D5EB" opacity="1.000000" stroke="none" d=" M120.899582,221.295898   C124.758995,227.074524 128.127579,233.485504 132.497650,239.119690   C135.424530,242.893204 139.438644,246.123978 143.567886,248.590286   C149.053864,251.866943 155.152725,254.107269 160.926666,256.919342   C162.350235,257.612671 163.535583,258.795166 164.912094,260.057892   C146.837967,254.473297 131.039215,245.545425 122.596550,227.248215   C121.776939,225.471939 121.411224,223.486252 120.899582,221.295898  z"/>
<path fill="#E4D5EB" opacity="1.000000" stroke="none" d=" M140.575958,159.905701   C139.252930,162.118759 137.565430,164.379822 135.931290,166.678818   C131.921722,172.319778 126.352043,177.051804 125.841576,184.712524   C125.680923,187.123474 125.413719,189.900253 121.501724,190.000488   C123.718124,177.596909 130.689316,167.964600 140.575958,159.905701  z"/>
<path fill="#F2DDF8" opacity="1.000000" stroke="none" d=" M262.105042,201.325867   C262.953156,199.679520 264.837402,198.329193 264.866272,196.940308   C265.104675,185.464325 265.174347,173.976059 264.837372,162.504959   C264.776489,160.432678 262.617645,158.422058 261.302124,156.039490   C264.978149,156.209747 266.253693,158.291351 266.192841,162.170090   C265.979126,175.785629 266.109894,189.406586 266.109894,203.683533   C264.467438,202.791443 263.374359,202.197739 262.105042,201.325867  z"/>
<path fill="#E4D5EB" opacity="1.000000" stroke="none" d=" M120.777740,191.252686   C120.954185,200.189163 120.925171,209.422836 120.812302,219.144211   C117.333366,210.289825 118.513351,200.922287 120.777740,191.252686  z"/>
<path fill="#D3000D" opacity="1.000000" stroke="none" d=" M323.199402,321.165558   C323.173279,321.866455 323.147186,322.567383 322.841675,323.628632   C322.191650,323.993408 321.821014,323.997803 321.450378,324.002197   C322.773560,319.785370 324.096680,315.568542 325.742554,311.288849   C325.674561,313.547821 325.283813,315.869629 324.570984,318.609497   C323.899048,319.740204 323.549225,320.452881 323.199402,321.165558  z"/>
<path fill="#E4D5EB" opacity="1.000000" stroke="none" d=" M167.762665,261.459778   C171.945908,262.512695 176.366196,263.834015 180.905304,265.476105   C176.682663,264.440643 172.341171,263.084412 167.762665,261.459778  z"/>
<path fill="#D3000D" opacity="1.000000" stroke="none" d=" M328.947601,343.651581   C328.478607,344.157471 327.990112,344.314667 327.308899,344.644196   C325.866974,342.506042 324.617828,340.195526 323.642273,337.641968   C324.293976,337.593994 324.672089,337.789154 325.050171,337.984314   C326.342834,339.757172 327.635468,341.530029 328.947601,343.651581  z"/>
<path fill="#D3000D" opacity="1.000000" stroke="none" d=" M383.155396,325.680573   C382.348663,324.555939 381.736084,323.121399 381.234741,321.163300   C381.558563,319.904480 381.771118,319.169250 381.983673,318.434021   C382.681702,318.633820 383.992767,318.863068 383.984772,319.028961   C383.883026,321.148163 383.592285,323.258270 383.155396,325.680573  z"/>
<path fill="#E4D5EB" opacity="1.000000" stroke="none" d=" M145.662781,156.056686   C146.130310,157.308258 146.264267,158.608749 146.436798,160.283737   C144.741028,160.168823 143.177933,160.062881 141.238434,159.919083   C142.351089,158.622681 143.840149,157.364151 145.662781,156.056686  z"/>
<path fill="#D3000D" opacity="1.000000" stroke="none" d=" M323.080475,326.016510   C323.084412,327.382996 323.088348,328.749451 322.911438,330.708496   C322.494659,332.073792 322.258728,332.846558 322.022827,333.619324   C321.756836,331.357666 321.490845,329.096039 321.593170,326.416321   C322.334473,326.004364 322.707458,326.010437 323.080475,326.016510  z"/>
<path fill="#D80010" opacity="1.000000" stroke="none" d=" M322.181396,334.258759   C322.258728,332.846558 322.494659,332.073792 322.925262,331.118225   C323.743988,333.034393 324.368073,335.133392 325.021149,337.608337   C324.672089,337.789154 324.293976,337.593994 323.744690,337.280823   C323.162323,336.407959 322.751160,335.653076 322.181396,334.258759  z"/>
<path fill="#D3000D" opacity="1.000000" stroke="none" d=" M374.286072,348.812805   C373.937286,348.694763 373.910980,348.510498 373.822510,348.052246   C374.811066,346.542603 375.861755,345.306976 377.203552,343.992584   C376.532623,345.524719 375.570618,347.135651 374.286072,348.812805  z"/>
<path fill="#D3000D" opacity="1.000000" stroke="none" d=" M381.865295,332.869415   C382.074951,332.362335 382.284576,331.855255 382.715210,331.179413   C382.773163,332.411774 382.610138,333.812897 382.196594,334.918823   C381.919128,334.038910 381.892212,333.454163 381.865295,332.869415  z"/>
<path fill="#D80010" opacity="1.000000" stroke="none" d=" M323.237366,325.838867   C322.707458,326.010437 322.334473,326.004364 321.682434,325.998505   C321.360321,325.551636 321.317200,325.104553 321.362244,324.329834   C321.821014,323.997803 322.191650,323.993408 322.842102,323.979462   C323.212708,324.533691 323.303467,325.097443 323.237366,325.838867  z"/>
<path fill="#D80010" opacity="1.000000" stroke="none" d=" M381.788635,317.787842   C381.771118,319.169250 381.558563,319.904480 381.167877,320.825562   C380.975433,319.592102 380.961121,318.172791 380.997864,316.329987   C381.230469,316.318207 381.412018,316.729919 381.788635,317.787842  z"/>
<path fill="#D80010" opacity="1.000000" stroke="none" d=" M381.661255,333.177734   C381.892212,333.454163 381.919128,334.038910 381.921814,334.903137   C381.750580,335.631531 381.603607,336.080444 381.260193,336.824097   C381.194916,335.907928 381.326080,334.696991 381.661255,333.177734  z"/>
<path fill="#D3000D" opacity="1.000000" stroke="none" d=" M378.877625,340.959961   C379.363190,340.354858 379.848755,339.749756 380.625336,339.056213   C380.905457,339.545044 380.894592,340.122253 380.280609,340.873840   C379.410858,341.018799 379.144257,340.989380 378.877625,340.959961  z"/>
<path fill="#D80010" opacity="1.000000" stroke="none" d=" M378.700806,341.202148   C379.144257,340.989380 379.410858,341.018799 380.079712,341.089844   C379.968292,341.562378 379.454681,341.993286 378.619995,342.517761   C378.373962,342.222351 378.448975,341.833344 378.700806,341.202148  z"/>
<path fill="#E4D5EB" opacity="1.000000" stroke="none" d=" M147.579895,154.827209   C147.597961,155.075806 147.293823,155.355194 146.680832,155.695358   C146.667221,155.456757 146.962463,155.157394 147.579895,154.827209  z"/>
<path fill="#D80010" opacity="1.000000" stroke="none" d=" M323.463806,321.038666   C323.549225,320.452881 323.899048,319.740204 324.537964,319.008698   C324.460785,319.630493 324.094513,320.271149 323.463806,321.038666  z"/>
</svg>
