<?xml version="1.0" encoding="UTF-8"?>
<svg id="_图层_1" data-name="图层 1" xmlns="http://www.w3.org/2000/svg" viewBox="0 0 959.47 873.41">
  <defs>
    <style>
      .cls-1 {
        fill: #fff;
      }
    </style>
  </defs>
  <path class="cls-1" d="m485.6,650.1c-23.66-.08-43.57-2.24-63.42-5.17-16.09-2.37-32.14-4.97-47.83-9.37-18.64-5.23-36.15-12.95-52.3-23.69-3.69-2.45-7.58-4.6-11.4-6.85-10.63-6.25-16.87-15.46-18.3-27.7-.69-5.93.6-11.76,2.08-17.5,2.21-8.53,6.52-16.13,10.86-23.67,8.62-14.96,18.33-29.24,27.63-43.77,2.15-3.36,2.64-6.54,1.87-10.24-1.17-5.58-3.81-10.46-6.9-15.15-4.45-6.75-9.83-12.76-15.05-18.89-5.76-6.77-11.31-13.68-15.87-21.34-2.7-4.53-4.92-9.28-6.54-14.31-1.31-4.09-.72-7.67,2.17-10.98,6.66-7.61,14.57-13.23,24.46-15.79,3.95-1.03,7.73-.86,11.41,1.28,3.29,1.91,6.45,3.91,9.23,6.52,5.52,5.17,11.12,10.25,16.6,15.46,4.86,4.63,10.83,6.89,17.26,7.7,8.14,1.02,12.8-4.76,10.74-13.18-1.81-7.39-4.87-14.31-9.38-20.49-3.69-5.05-7.15-10.25-9.93-15.86-4.66-9.39-2.56-18.14,5.87-24.36,6.97-5.14,14.92-7.46,23.5-7.77,2.3-.08,4.61.06,6.9-.07,4.71-.27,7.86,1.96,9.82,6.03,2.21,4.58,4.49,9.14,5.98,14.03,1.31,4.3,3.43,8.18,6.21,11.69,3.6,4.55,8.89,5.11,13.36,1.33,3.64-3.08,7.09-6.38,10.67-9.52,2.97-2.61,6.13-4.96,9.57-6.93,15.11-8.65,33.89-5.56,45.22,7.65,5.24,6.11,10.42,12.3,14.22,19.47,1.47,2.77,3.62,4.17,6.81,3.74,3.06-.41,5.57-1.31,6.84-4.66,3.61-9.56,6.53-19.29,8.61-29.29,1.01-4.87,2.37-9.58,5.57-13.54,2.74-3.38,4.25-3.79,7.98-1.56,7.14,4.27,14.85,6.89,22.94,8.64,5.54,1.2,10.72.67,15.85-1.68,4.26-1.96,6.43-.37,6.29,4.38-.05,1.68-.83,3.15-1.38,4.7-3.38,9.5-8.53,18.12-13.29,26.93-3.71,6.87-6.46,14-7.43,21.78-.1.81-.28,1.62-.3,2.44-.25,8.08,4.8,12.4,12.63,10.42,6.32-1.6,11.85-4.73,16.04-9.95,4.74-5.89,9.55-11.72,14.35-17.56,2.31-2.8,4.71-5.56,8.03-7.18,4.62-2.27,7.35-.99,9.17,2.41,3.69,6.89,8.53,12.78,15.23,17.11,2.91,1.88,5.75,3.79,8.99,5.04,1.23.47,2.49.88,3.66,1.46,5.46,2.73,6.54,6.55,3.24,11.63-2.26,3.49-5.34,6.23-8.48,8.89-6.64,5.64-13.4,11.13-19.9,16.94-6.64,5.94-11.42,13.15-15.09,21.1-3.22,6.97-2.37,14.22.35,21.11,3.61,9.18,8.36,17.84,13.47,26.27,3.91,6.46,8.25,12.66,12.47,18.92,9.12,13.55,16.36,28.09,21.84,43.5,3.51,9.87,2.78,19.62-2.27,28.58-5.79,10.28-13.49,18.99-24.21,24.62-7.59,3.99-15.44,7.3-23.67,9.69-23.42,6.81-47.3,11.22-71.62,13.01-21.63,1.6-43.29,2.92-61.42,3.56Zm-51.74-110.81c.03-.66.07-1.31.09-1.97.42-16.11-1.55-31.79-8.39-46.58-2.99-6.48-6.97-12.27-12.33-17.03-12-10.63-25.25-9.27-34.84,3.52-4.1,5.47-7.08,11.51-8.52,18.15-6.47,29.75.89,56.25,19.49,79.85,4.5,5.7,10.28,10.16,17.2,12.82,8.43,3.25,14.04,1.36,18.95-6.25,3.55-5.5,5.18-11.67,6.3-18.01,1.43-8.1,1.78-16.31,2.06-24.51Zm163.21-29.19c-.06-6.33-.73-12.51-2.47-18.56-1.66-5.78-4.25-11.05-8.82-15.12-5.4-4.82-11.64-6.56-18.74-4.78-4.4,1.1-8.17,3.38-11.57,6.31-4.15,3.56-7.63,7.71-10.44,12.38-12.78,21.28-17.57,44.4-15.41,68.99.74,8.43,2.99,16.51,8.15,23.45,5.83,7.84,14.07,9.58,22.62,4.89,2.46-1.35,4.65-3.06,6.69-5,2.99-2.85,5.45-6.13,7.93-9.4,14.2-18.68,20.49-40.1,22.05-63.16Zm-142.19,80.92c-1.21,4.58,1.28,7.22,4.13,9.39,6.24,4.76,13.51,6.74,21.23,6.45,5.65-.21,10.91-2.15,15.4-5.82,2.72-2.22,4.12-5.07,4.24-8.53.07-2.05-.97-2.63-2.81-1.7-.44.22-.83.53-1.23.82-8.73,6.53-18.4,7.08-28.57,4.52-4.28-1.08-8.3-2.82-12.39-5.14Z"/>
  <path class="cls-1" d="m848.31,575.28c.25,8.45-1.98,16.27-5.95,23.64-.62,1.15-1.25,2.36-2.12,3.31-6.44,7.07-10.24,6.71-16.13,1.34-9.89-9.01-21.44-15.73-33.03-22.3-12.95-7.33-26.62-12.76-41.14-16.18-9.59-2.26-19.04-5.11-28.5-7.86-10.3-3-20.8-4.74-31.49-5.59-12.68-1.01-14.28-1.97-18.95-13.56-4.7-11.66-11.43-21.78-20.78-30.17-.61-.55-1.19-1.14-1.72-1.77-4.64-5.63-2.64-11.3,4.55-12.74,3.74-.75,7.53-.53,11.3-.13,15.74,1.7,31.08,5.24,46.12,10.14,20.16,6.56,39.91,14.17,59.54,22.23,16.39,6.73,33.32,12.2,50.56,16.55,3.82.96,7.57,2.16,11.21,3.74,9.66,4.2,14.74,11.7,16.02,21.96.31,2.44.35,4.92.52,7.38Z"/>
  <path class="cls-1" d="m116.83,563.37c.08-5.14.51-9.21,1.52-13.22,2.17-8.61,7.33-14.52,15.73-17.56,5.76-2.08,11.81-2.81,17.76-4.03,16.58-3.38,33.02-7.29,49.11-12.58,21.4-7.03,43.11-12.94,65.33-16.73,10.35-1.76,20.79-3.19,31.37-2.57,2.63.15,5.27.25,7.76,1.21,4.99,1.93,6.29,6.42,3.02,10.64-.99,1.28-2.3,2.34-3.59,3.35-8.25,6.5-14.93,14.28-19.62,23.73-1.09,2.2-2.46,4.27-3.57,6.47-2.05,4.05-5.27,6.16-9.8,6.29-.82.02-1.64.19-2.46.16-15.57-.53-30.75,2.08-45.89,5.31-7.86,1.68-15.87,2.71-23.76,4.28-16.46,3.26-31.51,10.22-46.17,18.08-6.22,3.34-12.34,6.84-17.94,11.22-4.07,3.19-7.2,2.84-10.92-.82-4.97-4.89-6.25-11.4-7.49-17.87-.4-2.08-.32-4.25-.39-5.37Z"/>
  <path class="cls-1" d="m802.78,665c-.18,6.88-2.48,14.2-6.16,21.11-2.62,4.9-6.17,8.94-11.5,11.02-4.95,1.93-7.02,1.25-9.89-3.23-4.21-6.58-9.49-12.15-15.49-17.11-5.32-4.39-10.58-8.87-15.88-13.29-16.29-13.63-33.52-25.94-51.65-36.99-2.39-1.46-4.71-2.99-6.73-4.96-2.86-2.78-3.82-6.07-2.77-9.9.43-1.58.97-3.15,1.61-4.65,3.69-8.64,4.1-17.49,1.79-26.53-.69-2.7-1.54-5.4-1.14-8.24.51-3.64,2.21-4.84,5.76-4.15,2.46.48,4.72,1.49,6.72,2.96,2.38,1.74,4.87,3.43,6.93,5.52,13.1,13.27,28.62,23.65,42.65,35.8,5.09,4.41,10.5,8.46,15.52,12.95,10.69,9.58,23.14,16.79,34.26,25.78,5.44,4.4,6.39,5.86,5.97,13.91Z"/>
  <path class="cls-1" d="m175.23,656.32c-.29-3.56.97-6.33,3.78-8.62,20.04-16.29,38.44-34.38,57.2-52.1,8.84-8.35,17.84-16.51,25.93-25.62,2.52-2.83,5.42-5.31,8.95-6.84,5.01-2.17,7.59-.49,7.61,4.91,0,1.47-.16,2.96-.45,4.4-1.82,9.18-.78,17.91,3.53,26.32,3.77,7.37,2.83,11.39-4.28,16.44-8.32,5.91-16.21,12.33-24.14,18.73-7.56,6.1-14.82,12.5-21.81,19.23-5.33,5.13-10.59,10.33-15.92,15.45-5.02,4.82-9.24,10.23-12.59,16.33-2.32,4.21-4.24,5.02-8.86,3.63-3.9-1.18-7.04-3.58-9.48-6.78-5.73-7.52-8.87-16.05-9.47-25.49Z"/>
  <path class="cls-1" d="m550.45,313.16c.29-8.41,1.63-16.74,4.07-24.72,5.46-17.89,10.16-36.03,17.23-53.4,2.46-6.06,6.07-7.89,12.42-5.98,9.24,2.77,17.41,7.69,25.09,13.35,4.52,3.33,4.9,5.77,2.56,11.19-4.45,10.31-7.91,20.87-9.04,32.1-.53,5.25-.4,10.5-.33,15.75.08,6.43-.52,12.72-2.77,18.88-2.33,6.38-6.87,9.88-13.16,11.34-9.79,2.28-19.22.78-28.39-3.1-4.93-2.09-7.46-5.69-7.65-10.98-.06-1.48,0-2.96,0-4.43Z"/>
  <path class="cls-1" d="m240.72,303.36c3.44-.07,6.46,1.22,9.17,3.13,2.27,1.6,4.42,3.41,6.43,5.34,8.17,7.85,16.29,15.75,24.36,23.7,5.62,5.54,11.52,10.75,17.66,15.7,4.62,3.73,8.88,7.81,12.36,12.64,3.36,4.66,2.92,9.15-1.23,13.15-1.67,1.61-3.63,2.85-5.69,3.85-6.44,3.13-11.97,7.5-16.84,12.66-3.38,3.59-6.48,5.17-12.61,1.01-3.95-2.68-7.65-5.96-10.05-10.04-6.3-10.7-16.03-17.63-25.73-24.67-4.13-3-7.98-6.33-11.68-9.81-4.77-4.48-5.8-8.85-2.74-14.63,3.07-5.8,4.65-11.87,5.37-18.29.33-2.97,1.21-5.8,2.53-8.46,1.76-3.54,4.64-5.44,8.7-5.3Z"/>
  <path class="cls-1" d="m670.23,391.07c-10.38-.27-19.63-3.45-26.68-11.46-3.92-4.45-6.47-9.48-4.64-15.77,1.11-3.81,3.35-6.68,6.49-8.99,6.74-4.95,13.66-9.7,20.13-14.99,9.53-7.78,19.24-15.36,28.17-23.84,2.38-2.26,4.98-4.26,8.19-5.32,10.69-3.56,22.03,1.52,26.4,12.01,1.85,4.45,2.67,9.19,2.16,13.99-.5,4.73-2.51,8.78-6.56,11.63-5.76,4.06-11.66,7.93-16.76,12.89-5.19,5.05-10.08,10.33-14.01,16.45-.71,1.1-1.57,2.1-2.31,3.19-4.91,7.3-11.77,10.68-20.6,10.22Z"/>
  <path class="cls-1" d="m781.43,279.25c20.17.9,39.77,4.53,58.54,12.18,2.74,1.12,5.46,2.33,7.78,4.2,5.09,4.07,4.34,9.39-1.7,11.8-1.81.72-3.77,1.2-5.7,1.49-7.46,1.14-14.92,2.09-22.52,2.3-10.7.3-21.15,2.68-31.53,5.19-9.77,2.37-19.3,5.5-28.22,10.13-5.37,2.79-9.72,1.59-13.99-1.93-5.29-4.34-9.53-9.53-12.36-15.76-3.28-7.22-1.84-12.68,4.77-17.09,10.6-7.07,22.46-10.73,35.07-12.02,3.26-.33,6.56-.33,9.86-.48Z"/>
  <path class="cls-1" d="m221.41,316.4c-.5,5.93-1.8,12.96-5.78,19.28-1.7,2.69-3.85,4.39-7.14,4.48-1.97.05-3.93.32-5.89.42-21.57,1.11-42.1,6.3-61.7,15.37-6.26,2.9-12.85,4.97-19.54,6.69-1.26.32-2.59.54-3.88.52-4.99-.07-7.45-3.42-6.17-8.25.43-1.62,1.24-3.06,2.24-4.36,2.11-2.73,4.18-5.5,6.53-8,12.01-12.76,25.7-23.43,40.88-32.17,12.95-7.45,26.91-11.19,41.86-11.1,1.48,0,2.96.06,4.43.17,10.09.75,14.34,5.44,14.16,16.96Z"/>
  <path class="cls-1" d="m399.07,320.7c.33,3.53-.76,5.08-3.02,6.07-2.48,1.08-5.04,1.52-7.68,1.43-8.34-.27-15.84,2.14-22.78,6.69-2.87,1.88-5.71,3.91-9.07,4.89-3.65,1.06-4.67.53-5.8-3.11-1.21-3.93-2.32-7.9-2.6-12.02-1.12-16.09-6.39-30.78-14.71-44.49-4.46-7.35-4.19-9.55,2.13-15.2,4.66-4.17,9.68-7.89,14.89-11.34,2.33-1.54,4.83-2.82,7.48-3.75,5-1.76,8.55-.45,11.26,4.06,4.57,7.62,8.4,15.62,11.94,23.76,4.78,10.99,10.85,21.4,14.83,32.75,1.3,3.72,2.58,7.44,3.13,10.26Z"/>
  <path class="cls-1" d="m295.77,206.31c6.09.12,12.35,2.05,18.4,4.69,11.61,5.07,22.6,11.3,33.16,18.29,2.47,1.64,4.79,3.48,6.66,5.8,2.46,3.05,2.32,4.18-.99,6.17-5.64,3.39-10.91,7.29-16.2,11.19-3.47,2.57-6.41,5.54-8.77,9.2-3.09,4.81-4.76,5.01-8.89,1.19-6.52-6.03-13.4-11.51-20.95-16.28-7.3-4.62-13-11.1-17.04-18.78-2.52-4.79-3.69-9.95-.34-14.95,3.41-5.08,8.21-7.37,14.96-6.53Z"/>
  <path class="cls-1" d="m656.78,190.91c.02,1.99-.5,4.52-1.61,6.97-3.77,8.36-8.87,15.72-16.12,21.44-5.59,4.41-10.22,9.72-14.73,15.16-.94,1.14-1.83,2.34-2.9,3.35-2.11,2-4.18,2.29-6,.1-7.79-9.37-18.85-13.41-29.28-18.49-3.26-1.59-3.61-2.51-1.82-5.65,1.57-2.74,3.73-5.01,6.09-7.06,9.68-8.42,19.83-16.21,30.83-22.85,6.1-3.69,12.62-6.29,19.69-7.41,8.54-1.35,16.01,5.14,15.84,14.43Z"/>
  <path class="cls-1" d="m917.84,631.6c-.1,3.69-.54,6.78-1.64,9.72-1.28,3.42-3.53,4.05-6.44,1.8-1.02-.79-1.88-1.83-2.71-2.84-2.02-2.44-4.45-4.37-7.21-5.87-6.05-3.29-12.1-6.59-18.21-9.76-6.91-3.59-14.3-5.69-21.99-6.81-2.59-.38-5.19-.82-7.73-1.45-4.29-1.06-5.89-3.58-5.24-7.97.43-2.95,1.44-5.74,2.86-8.34,4.23-7.7,6.95-15.89,8.48-24.53,1.01-5.71,2.93-6.63,8.14-4.11,2.51,1.21,5.04,2.46,7.03,4.47,12.1,12.26,24.72,24.01,36.19,36.88,3.83,4.29,7.18,9,8.01,14.97.2,1.46.36,2.92.47,3.84Z"/>
  <path class="cls-1" d="m48.17,607.76c-.31-8.3,4.01-14.37,9.65-19.69,11.47-10.83,23.87-20.59,35.82-30.87,2.28-1.96,5.08-2.97,7.82-4.08.15-.06.32-.09.47-.13,3.72-.96,5.59-.04,5.86,3.71.67,9.48,3.34,18.37,7,27.04.44,1.05.66,2.2.87,3.33.86,4.6-.12,9.18-6.9,9.29-1.96.03-3.91.49-5.88.58-7.98.34-15.56,2.31-22.87,5.45-4.82,2.07-9.62,4.22-14.44,6.31-3.2,1.39-6.1,3.19-8.52,5.74-.67.71-1.4,1.42-2.23,1.93-2.87,1.78-4.95.96-5.94-2.27-.63-2.07-.73-4.2-.74-6.33Z"/>
  <path class="cls-1" d="m837.92,732.75c-.29,5.13-1.24,10.12-3.9,14.59-2.81,4.71-6.3,4.74-8.72-.21-3.97-8.14-10.49-13.76-17.57-18.88-3.99-2.88-8.09-5.62-11.85-8.81-2.66-2.25-4.92-4.83-6.43-8-1.01-2.12-.99-4.11.96-5.78.75-.64,1.37-1.42,2.12-2.06,7.33-6.28,11.86-14.35,15.02-23.31.27-.77.44-1.6.83-2.3,1.12-2,2.55-2.36,4.5-1.12,1.69,1.08,2.8,2.74,3.93,4.36,7.13,10.19,11.32,21.82,15.99,33.19,1.61,3.93,3.49,7.79,4.41,11.99.46,2.09.79,4.19.7,6.35Z"/>
  <path class="cls-1" d="m147.59,723.51c.07-2.92.28-5.19.95-7.42,2.83-9.43,5.93-18.78,9.34-28.01,1.66-4.48,3.8-8.73,6.28-12.8.68-1.11,1.46-2.21,2.4-3.1,2.07-1.96,3.7-1.66,5.06.89.77,1.44,1.33,2.99,2.02,4.48,3.3,7.15,8.16,13,14.35,17.87,4.55,3.58,4.63,4.92,1.5,9.88-3.04,4.81-7.48,8.25-11.82,11.74-3.85,3.09-7.58,6.28-10.77,10.07-2.54,3.02-5.07,6.04-6.28,9.91-.15.47-.35.93-.59,1.35-2.03,3.61-4.83,3.97-7.33.68-3.6-4.74-4.98-10.27-5.11-15.54Z"/>
  <path class="cls-1" d="m418.75,545.92c.01,7.27-1.11,12.5-4.1,17.24-4.09,6.48-11.14,8.18-17.39,3.75-5.88-4.18-10.25-9.51-11.79-16.94-1.45-6.98-2.48-13.88-1.04-20.97.53-2.6,1.3-5.09,2.61-7.39,3.5-6.15,9.46-8.14,16-5.29,5.05,2.2,8.54,6.05,10.91,10.9,3.14,6.44,4.6,13.3,4.79,18.7Zm-15.28-11.48c3.88.04,6.88-2.86,6.89-6.68.02-3.57-2.81-6.4-6.51-6.53-3.85-.13-7.06,2.75-7.18,6.44-.12,3.73,2.89,6.73,6.8,6.77Z"/>
  <path class="cls-1" d="m575.5,542.32c-.07,6.31-1.08,11.65-2.73,16.8-2.04,6.36-6.42,11.09-12.08,14.4-5.9,3.44-12.08,1.72-15.87-3.99-2.7-4.06-4.05-8.59-4.32-13.43-.44-7.87,1.25-15.35,4.47-22.47,2.15-4.77,5.49-8.57,10.2-10.98,7.06-3.61,13.79-1.4,17.38,5.68,2.37,4.66,2.85,9.71,2.95,13.99Zm-10.48-17c-3.78-.14-6.91,2.82-7.11,6.7-.21,4.12,2.7,7.58,6.58,7.82,3.83.24,7.3-3.02,7.45-6.98.15-3.94-3.02-7.39-6.93-7.53Z"/>
</svg>
